<svg width="20" height="20" viewBox="0 0 20 20" fill="none" xmlns="http://www.w3.org/2000/svg">
<g clip-path="url(#clip0_30_2)">
<path d="M19.1418 5.17147C19.2818 5.03096 19.3259 4.81033 19.2864 4.53797C19.1951 3.90869 18.6573 3.00323 17.8256 2.17155C16.8585 1.20427 15.7945 0.636445 15.179 0.70548C15.097 0.714681 15.0229 0.735195 14.9581 0.767585C14.917 0.788094 14.8797 0.813366 14.8464 0.843542L14.8194 0.864752L8.23594 6.76447C7.01551 5.70053 5.16998 5.73683 4.00742 6.89879C3.81176 7.09479 3.70149 7.36042 3.70149 7.63753C3.70149 7.91468 3.81172 8.18039 4.00742 8.37605C4.00742 8.37605 5.66885 10.0377 6.48717 10.8561C6.77646 11.1454 6.79051 11.6099 6.51923 11.9162C4.64772 14.0291 0.84798 18.319 0.84798 18.319C0.652358 18.5394 0.648026 18.876 0.84855 19.102C1.06473 19.3454 1.43743 19.3678 1.68135 19.1512C1.68135 19.1512 6.14619 15.1854 8.34529 13.232C8.4991 13.0954 8.73272 13.1023 8.87828 13.2476L8.91705 13.2864L10.4599 14.8296L11.6126 15.9823C11.8083 16.1779 12.0739 16.2878 12.3507 16.2878C12.6273 16.2878 12.8931 16.1777 13.0886 15.9817C14.25 14.8197 14.2865 12.9731 13.2231 11.7526L19.1208 5.18382C19.1268 5.17858 19.1363 5.1774 19.1418 5.17147Z" stroke="#616874" stroke-width="1.36812" stroke-linecap="round"/>
</g>
<defs>
<clipPath id="clip0_30_2">
<rect width="20" height="20" fill="white"/>
</clipPath>
</defs>
</svg>
