<svg width="24" height="24" viewBox="0 0 24 24" fill="none" xmlns="http://www.w3.org/2000/svg">
<path d="M7.18125 21.7406C6.8625 21.7406 6.60938 21.4875 6.60938 21.1688V2.83127C6.60938 2.51252 6.8625 2.2594 7.18125 2.2594C7.5 2.2594 7.75312 2.51252 7.75312 2.83127V21.1688C7.75312 21.4875 7.5 21.7406 7.18125 21.7406Z" fill="#616874"/>
<path d="M1.10625 15.0938C1.33125 14.8688 1.69687 14.8688 1.9125 15.0938L7.58438 20.7657C7.80938 20.9907 7.80938 21.3563 7.58438 21.5719C7.35938 21.7969 6.99375 21.7969 6.77813 21.5719L1.10625 15.9C0.88125 15.675 0.88125 15.3094 1.10625 15.0938Z" fill="#616874"/>
<path d="M13.2094 15.1407C12.9844 14.9157 12.6281 14.9157 12.4031 15.1407L6.77813 20.7657C6.55312 20.9907 6.55312 21.3469 6.77813 21.5719C7.00313 21.7969 7.35937 21.7969 7.58437 21.5719L13.2094 15.9469C13.425 15.7219 13.425 15.3657 13.2094 15.1407Z" fill="#616874"/>
<path d="M16.8 21.7406C16.4812 21.7406 16.2281 21.4875 16.2281 21.1688V2.83127C16.2281 2.51252 16.4812 2.2594 16.8 2.2594C17.1187 2.2594 17.3719 2.51252 17.3719 2.83127V21.1688C17.3719 21.4875 17.1187 21.7406 16.8 21.7406Z" fill="#616874"/>
<path d="M10.6594 8.8594C10.8844 9.0844 11.25 9.0844 11.475 8.8594L17.2031 3.2344C17.4281 3.0094 17.4281 2.65315 17.2031 2.42815C16.9781 2.20315 16.6125 2.20315 16.3875 2.42815L10.6594 8.05315C10.4344 8.27815 10.4344 8.6344 10.6594 8.8594Z" fill="#616874"/>
<path d="M22.8937 8.80315C22.6687 9.02815 22.3031 9.02815 22.0781 8.80315L16.4062 3.22502C16.1812 3.00002 16.1812 2.64377 16.4062 2.42815C16.6312 2.20315 16.9969 2.20315 17.2125 2.42815L22.8937 8.01565C23.1187 8.23127 23.1187 8.58752 22.8937 8.80315Z" fill="#616874"/>
</svg>
